<?xml version="1.0" encoding="utf-8"?>
<!-- Generator: Adobe Illustrator 22.1.0, SVG Export Plug-In . SVG Version: 6.00 Build 0)  -->
<svg version="1.1" id="Layer_1" xmlns="http://www.w3.org/2000/svg" xmlns:xlink="http://www.w3.org/1999/xlink" x="0px" y="0px"
	 viewBox="0 0 500 500" style="enable-background:new 0 0 500 500;" xml:space="preserve">
<style type="text/css">
	.st0{fill:##7A16F2;}
</style>
<g>
	<path class="st0" d="M438.6,76.7c11.1,9.5,16.7,24.7,16.7,45.7c0,22.8-7,41.2-20.9,55.1c-13.9,13.9-35.5,26.2-64.6,36.7
		c-13.5,5.1-22.8,8.4-27.9,9.9c12.9,13.8,19.3,30.9,19.3,51.3c0,19.8-6.2,38.8-18.7,56.9c-12.5,18.2-30.9,32.9-55.3,44.3
		c-24.5,11.4-54.1,17.1-88.9,17.1c-42,0-75.9-8.5-101.7-25.7c-25.8-17.1-38.7-41.4-38.7-72.9c0-29.1,10.9-54.5,32.9-76.1
		c21.9-21.6,51.3-36.3,88.2-44.1c-13.2-4.5-23.1-10.9-29.7-19.1c-6.6-8.2-9.9-17.5-9.9-27.7c0-12,4.2-22.3,12.6-30.8
		c8.4-8.6,19.4-15,32.9-19.4c13.5-4.3,27.6-6.5,42.3-6.5c18.3,0,32.3,3.3,42.1,9.9c9.7,6.6,14.6,15.3,14.6,26.1
		c0,9.9-3.6,17.6-10.8,23.2c-7.2,5.6-15.2,8.3-23.9,8.3V131c7.2,0,13.1-2,17.8-6.1c4.6-4,7-9.4,7-16c0-7.2-3-13-9-17.3
		c-6-4.3-13.8-6.5-23.4-6.5c-10.8,0-20.9,2.7-30.2,8.1c-9.3,5.4-16.8,13-22.5,22.9c-5.7,9.9-8.5,21-8.5,33.3c0,8.4,1.6,16.1,5,22.9
		c10.8-1.8,20.3-2.7,28.3-2.7c10.8,0,16.2,3.1,16.2,9.4c0,3-1.4,5.3-4,7c-2.7,1.7-6,2.5-9.9,2.5c-7.5,0-17.9-3.3-31-9.9
		c-15.9,6-29.1,17.7-39.6,35.1c-10.5,17.4-15.8,36.8-15.8,58.1c0,27,9,47.6,27,61.9c18,14.3,42.9,21.4,74.7,21.4
		c21.3,0,41.1-3.1,59.4-9.5c18.3-6.3,33.1-15.8,44.3-28.3s16.9-27.9,16.9-45.9s-5.6-33-16.7-45l-51.3,17.6
		c-9.3,2.7-18.9,5.8-28.8,9.4c-13.2,4.5-23.6,9.8-31.1,16c-7.5,6.2-11.3,13.7-11.3,22.7c0,8.4,3.1,14.6,9.2,18.7
		c6.1,4.1,13.7,6.1,22.7,6.1c11.7,0,21.7-3,29.9-9c8.2-6,14-12.3,17.3-18.9l6.8,3.6c-4.5,8.7-11.4,16.4-20.7,23
		c-9.3,6.6-21,9.9-35.1,9.9c-15,0-27.8-4.1-38.3-12.4c-10.5-8.2-15.8-21.1-15.8-38.5c0-36,26.2-62.6,78.8-79.7l32.8-10.8
		c42.6-13.8,71.1-23.4,85.5-28.8c17.4-6.3,30.8-12.8,40.3-19.6s14.2-16.3,14.2-28.6c0-11.1-4.3-20.1-12.8-27
		c-8.5-6.9-19.1-10.4-31.7-10.4c-5.4,0-9.8,0.9-13,2.7c13.2,5.4,19.8,14.3,19.8,26.5c0,9.6-4.1,17.4-12.4,23.4c-8.3,6-17.6,9-28.1,9
		c-9.6,0-17.4-2.6-23.4-7.9c-6-5.2-9-12.1-9-20.5c0-8.1,2.5-15,7.4-20.7c4.9-5.7,11.8-10.2,20.5-13.5c9.9-4.2,22-6.3,36.5-6.3
		C412.6,62.6,427.5,67.3,438.6,76.7z"/>
</g>
</svg>
